<svg version="1.0" xmlns="http://www.w3.org/2000/svg"
 width="1280.000000pt" height="1280.000000pt" viewBox="0 0 1280.000000 1280.000000"
 preserveAspectRatio="xMidYMid meet">
<g transform="translate(0.000000,1280.000000) scale(0.100000,-0.100000)"
fill="#fff" stroke="none">
<path d="M2456 11700 c-27 -11 -59 -28 -71 -40 -12 -11 -35 -20 -52 -20 -75 0
-231 -143 -290 -265 -78 -164 -81 -316 -13 -580 42 -160 79 -244 130 -290 41
-37 62 -85 71 -162 6 -57 16 -88 36 -119 70 -106 97 -142 105 -138 4 3 8 0 8
-6 0 -7 7 -26 15 -44 l15 -32 -75 -79 c-107 -113 -164 -202 -219 -340 -26 -66
-72 -163 -101 -215 -90 -159 -142 -285 -235 -575 -23 -71 -62 -182 -87 -245
-68 -175 -111 -355 -128 -533 -17 -196 -31 -511 -27 -654 l3 -113 -79 0 c-151
0 -383 -38 -417 -69 -18 -17 -32 -18 -130 -12 -60 4 -113 5 -117 2 -4 -3 -12
-85 -17 -181 -6 -96 -14 -208 -17 -247 l-6 -73 44 0 c23 0 54 -3 67 -7 21 -5
23 -10 19 -54 -4 -36 -1 -49 9 -54 8 -3 60 -5 114 -5 l100 0 -21 -30 c-12 -17
-30 -30 -43 -30 -12 0 -44 -6 -72 -13 -45 -12 -50 -16 -58 -50 -6 -24 -23 -49
-47 -70 l-38 -32 -7 -125 c-6 -117 -9 -133 -52 -245 -26 -66 -48 -122 -50
-124 -1 -2 -8 1 -15 6 -7 6 -47 13 -88 17 -66 5 -78 10 -100 35 -44 51 -127
80 -190 66 -83 -18 -145 -124 -121 -205 38 -126 244 -148 316 -33 22 35 36 38
119 27 37 -6 47 -10 43 -23 -3 -9 -30 -99 -61 -201 -31 -102 -75 -259 -98
-350 -30 -123 -47 -172 -65 -191 -15 -16 -23 -36 -21 -49 3 -20 9 -22 88 -25
46 -2 89 0 95 4 5 5 62 11 125 13 l115 5 1 -261 c0 -191 5 -290 17 -369 72
-465 228 -822 470 -1075 50 -53 84 -90 73 -82 -16 13 -21 11 -47 -18 -45 -50
-32 -94 44 -146 65 -45 176 -89 432 -171 230 -73 516 -173 690 -240 134 -52
225 -84 270 -95 17 -4 91 -26 165 -49 202 -62 214 -66 360 -106 163 -44 360
-107 415 -131 22 -10 42 -18 45 -18 12 -2 206 -102 211 -109 3 -5 9 -8 13 -7
8 2 98 -41 106 -51 3 -3 14 -8 25 -12 43 -12 151 -60 166 -73 8 -8 19 -14 24
-14 12 0 104 -63 105 -72 0 -4 16 -23 35 -44 19 -20 35 -41 35 -45 0 -5 7 -6
15 -3 9 4 15 0 15 -8 0 -8 16 -23 35 -34 19 -10 35 -22 35 -26 0 -7 56 -40 62
-37 2 0 44 -20 95 -45 50 -26 106 -49 123 -51 17 -2 39 -10 47 -17 9 -7 17
-11 17 -9 1 2 21 -3 46 -10 25 -7 50 -13 55 -15 6 -1 39 -9 74 -19 35 -9 77
-18 93 -20 16 -2 41 -6 56 -9 15 -3 51 -8 81 -11 30 -3 58 -8 62 -10 4 -3 45
-7 90 -11 46 -3 95 -7 109 -9 14 -3 70 -8 125 -11 55 -3 103 -8 106 -10 4 -2
89 -7 190 -10 101 -3 187 -8 192 -11 4 -2 7 -1 7 4 0 14 729 23 825 10 28 -4
77 -12 110 -17 33 -6 85 -15 115 -20 30 -5 82 -17 114 -25 33 -9 76 -18 95
-21 20 -3 43 -10 51 -14 8 -4 32 -11 54 -14 21 -3 102 -25 180 -47 77 -22 146
-42 151 -43 54 -14 343 -102 510 -156 504 -161 1261 -308 1935 -375 244 -25
640 -30 785 -11 218 28 288 51 315 102 12 22 12 27 0 34 -12 8 -12 10 -1 10 7
0 11 6 7 15 -3 9 0 15 9 15 8 0 15 5 15 10 0 6 9 10 20 10 11 0 20 5 20 10 0
6 6 10 13 10 23 0 112 98 118 130 4 16 3 27 -2 24 -5 -3 -7 9 -5 25 2 17 -1
28 -5 25 -8 -5 -14 17 -10 39 0 4 -6 7 -15 7 -8 0 -13 4 -10 8 5 9 -24 51 -61
86 -86 82 -101 95 -107 88 -4 -4 -7 -2 -6 3 5 22 -1 25 -22 15 -15 -7 -13 -3
7 12 236 182 442 405 572 618 259 425 377 922 333 1400 -43 473 -200 891 -467
1248 l-73 97 40 3 c21 2 78 -1 126 -6 58 -7 95 -7 110 0 26 12 40 68 25 96
-12 23 -81 79 -136 112 -22 13 -93 74 -157 136 -265 254 -419 374 -708 549
-247 149 -604 272 -935 321 -162 24 -486 29 -646 11 -74 -9 -143 -19 -152 -23
-12 -4 -17 -1 -17 12 0 10 -32 86 -72 169 -39 82 -102 215 -140 295 -60 124
-65 141 -41 118 37 -35 64 -44 156 -53 77 -7 77 -7 105 23 39 42 57 110 57
217 0 136 -38 215 -102 215 -41 0 -24 19 20 22 37 3 42 6 42 28 0 21 -5 26
-38 30 -41 5 -42 7 -34 48 l5 27 105 -3 c112 -4 144 5 188 51 65 67 105 243
96 427 -9 183 -58 305 -140 343 -45 22 -191 23 -270 2 -32 -8 -59 -15 -61 -15
-2 0 -6 28 -9 63 -10 99 -62 288 -105 379 -48 102 -87 151 -159 202 -54 38
-61 40 -142 43 -59 3 -114 -2 -176 -16 -84 -18 -91 -18 -105 -2 -34 38 -89 71
-138 82 -50 12 -52 14 -73 68 -29 73 -140 185 -202 203 -23 7 -96 13 -162 13
-66 1 -134 5 -151 9 -23 5 -37 2 -56 -13 l-25 -20 5 24 c3 17 0 25 -9 26 -8 1
-21 2 -29 3 -9 0 -16 13 -18 31 -4 39 -40 150 -64 198 -16 32 -23 38 -46 35
-35 -4 -39 -24 -41 -218 l-1 -155 -58 62 c-117 126 -418 306 -635 379 -91 31
-104 39 -170 102 -100 96 -129 120 -233 189 -189 127 -558 289 -684 300 -36 3
-68 10 -71 15 -9 14 -89 18 -133 6 -37 -9 -40 -8 -68 26 -17 21 -38 36 -51 36
-23 0 -365 -93 -404 -110 -19 -8 -22 -18 -25 -82 l-3 -73 -64 155 c-35 85 -75
173 -90 194 -20 31 -68 66 -211 153 -102 62 -199 118 -215 125 -29 10 -32 16
-42 83 l-12 72 49 144 c43 124 50 155 50 222 0 95 -15 134 -66 168 -78 53
-133 64 -314 63 -154 0 -176 -3 -328 -38 -143 -33 -375 -78 -378 -73 -4 9 -44
192 -49 225 -7 47 -54 128 -159 271 -147 201 -230 269 -385 315 -80 24 -270
21 -335 -4z m2136 -1619 c139 -83 192 -120 208 -145 23 -38 141 -318 136 -323
-3 -3 -238 -51 -283 -58 -91 -13 -128 -30 -200 -91 -41 -35 -158 -104 -176
-104 -6 0 -67 97 -67 108 0 5 -18 26 -40 46 -39 35 -71 89 -124 210 -20 44
-26 75 -26 126 0 99 0 99 76 92 78 -6 139 15 196 66 42 38 81 105 93 160 3 18
10 31 13 29 4 -2 91 -54 194 -116z m1338 -391 c144 -56 223 -90 218 -95 -2 -2
-30 3 -63 11 -70 16 -316 57 -361 59 -17 1 -36 5 -41 8 -6 4 -25 2 -43 -3 -39
-11 -54 -3 -26 14 11 6 29 20 40 32 12 12 28 24 36 27 33 12 121 -7 240 -53z
m-39 -115 c271 -41 383 -81 465 -167 31 -33 55 -61 53 -63 -5 -4 -209 35 -229
45 -8 4 -51 28 -96 54 -97 56 -199 93 -280 102 -85 8 -94 13 -64 29 32 18 30
18 151 0z m582 -165 c58 -41 134 -110 122 -110 -5 0 -31 6 -57 13 -42 11 -51
18 -82 70 -19 31 -32 57 -30 57 3 0 24 -13 47 -30z m-643 -114 c131 -31 234
-101 491 -334 l167 -151 7 -53 c3 -29 20 -104 36 -167 27 -108 29 -131 9 -131
-13 0 -169 107 -212 146 -26 24 -50 34 -85 39 -26 3 -100 21 -163 40 -124 37
-268 73 -395 100 -44 9 -98 25 -120 35 -22 10 -100 30 -172 45 l-133 28 -10
36 c-6 20 -13 52 -16 71 -5 32 -3 36 26 47 31 12 32 14 26 50 -3 21 -9 47 -12
58 -5 19 -1 20 34 17 52 -5 74 17 71 69 -2 21 -1 41 2 44 4 3 46 12 95 20 99
16 263 12 354 -9z m542 -11 c62 -9 69 -16 76 -71 l5 -48 -25 20 c-54 42 -132
117 -117 112 9 -4 37 -9 61 -13z m292 -73 c58 -23 147 -135 217 -274 58 -115
74 -171 53 -189 -19 -16 -50 9 -255 204 -139 131 -169 164 -169 187 0 15 -3
48 -6 73 l-6 45 61 -14 c34 -8 81 -22 105 -32z m214 -72 c209 -79 472 -248
590 -379 40 -45 71 -81 69 -81 -3 0 -29 11 -59 25 -29 14 -63 25 -76 25 -12 0
-49 14 -82 30 -33 17 -66 30 -73 30 -8 0 -35 11 -60 24 -25 14 -64 30 -86 37
-36 11 -42 10 -67 -10 l-28 -22 -12 34 c-17 48 -120 236 -151 275 -14 17 -24
32 -22 32 2 0 28 -9 57 -20z m-2267 -106 c7 -9 21 -13 33 -10 17 4 27 -6 56
-60 45 -85 49 -88 100 -74 37 10 42 14 37 36 -5 28 20 34 29 7 11 -37 64 -140
76 -150 31 -24 424 -102 513 -102 54 1 300 -44 400 -72 l40 -12 -35 -12 c-72
-26 -370 -160 -511 -230 -80 -40 -220 -105 -311 -143 -288 -123 -346 -156
-553 -321 -27 -22 -59 -42 -70 -43 -12 -2 -21 -12 -23 -25 -6 -42 -52 -56 -52
-15 0 10 -13 28 -30 42 -16 14 -30 30 -30 36 0 6 -9 23 -21 38 l-20 26 23 10
c13 5 38 22 56 38 l33 29 -26 74 c-42 117 -44 126 -55 284 -20 270 -24 447 -9
456 8 4 15 34 17 72 l4 65 132 35 c152 40 179 43 197 21z m-2084 -193 c26 -47
66 -132 89 -189 45 -109 77 -159 130 -204 20 -18 34 -41 39 -65 7 -41 32 -92
69 -148 21 -30 23 -40 14 -68 -20 -62 -36 -133 -48 -213 -14 -93 -7 -114 39
-138 23 -12 27 -20 24 -40 -3 -14 -11 -30 -19 -36 -7 -7 -18 -35 -25 -65 l-12
-53 -106 -17 c-207 -33 -532 -95 -687 -129 -87 -20 -158 -35 -160 -33 -3 3 17
104 38 192 11 44 46 139 78 210 32 72 70 166 84 210 14 44 39 118 55 165 17
47 31 96 31 110 0 14 15 57 33 95 19 39 46 107 61 152 15 45 64 153 109 239
94 181 81 179 164 25z m5609 -57 c46 -22 124 -102 145 -149 l18 -40 -67 -7
c-37 -4 -81 -9 -99 -13 -30 -5 -33 -3 -52 41 -12 26 -21 52 -21 58 0 6 18 21
40 34 66 37 48 72 -37 72 -50 0 -63 7 -45 24 10 10 78 -1 118 -20z m-1408
-187 c69 -52 82 -66 80 -87 -3 -24 -5 -25 -91 -25 -73 0 -91 3 -98 17 -11 20
-59 197 -59 217 0 8 18 -2 43 -23 23 -20 79 -65 125 -99z m1584 -97 c3 -17 1
-57 -4 -89 -8 -54 -13 -62 -89 -139 -45 -45 -90 -87 -101 -93 -11 -6 -37 -26
-58 -45 -54 -49 -79 -41 -126 40 -20 33 -47 75 -60 93 -30 39 -30 44 1 73 17
16 23 30 19 45 -5 19 7 29 82 74 93 55 139 68 260 70 l72 1 4 -30z m155 -13
c18 -12 33 -25 33 -29 0 -7 -131 -70 -136 -66 -1 2 0 32 3 67 l6 63 31 -6 c16
-4 45 -16 63 -29z m-2022 -47 c3 -5 1 -10 -4 -10 -6 0 -11 5 -11 10 0 6 2 10
4 10 3 0 8 -4 11 -10z m710 -353 c-14 -35 -14 -38 5 -57 19 -19 19 -22 4 -44
-19 -30 -6 -63 30 -72 16 -4 27 -19 39 -52 22 -60 21 -63 -4 -53 -15 5 -37 41
-71 117 -87 191 -83 171 -40 193 46 24 57 15 37 -32z m885 -681 c0 -6 -7 -2
-15 8 -8 11 -15 25 -15 30 0 6 7 2 15 -8 8 -11 15 -25 15 -30z m1068 -266 c13
-17 27 -54 32 -87 17 -100 22 -94 -79 -87 -80 6 -88 5 -93 -12 -7 -28 1 -44
23 -44 10 0 19 -3 19 -7 -1 -13 -38 -58 -43 -53 -6 6 -147 261 -147 265 0 1
42 6 94 10 60 4 107 13 128 25 43 23 39 23 66 -10z m-48 -512 l0 -83 -34 70
-33 70 31 12 c17 6 32 12 34 12 1 1 2 -36 2 -81z m-613 -41 c13 -13 413 -872
413 -887 0 -10 -59 -44 -65 -38 -10 11 -135 306 -135 319 0 10 -65 155 -145
324 l-144 307 32 -6 c17 -4 37 -12 44 -19z m-490 -457 c91 -201 173 -374 183
-385 28 -32 202 -387 193 -395 -125 -105 -342 -339 -389 -420 -10 -17 -23 -29
-29 -27 -15 5 -133 234 -151 296 -13 45 -14 55 -3 62 11 8 11 12 -3 23 -23 17
-23 22 5 30 l22 6 -23 20 -23 19 22 12 23 12 -23 18 c-22 18 -22 18 -1 29 26
14 25 25 -2 37 l-23 10 23 12 c28 15 28 28 0 37 l-22 7 24 19 24 20 -23 18
-24 18 22 11 c18 10 20 15 10 27 -6 8 -19 14 -28 14 -12 0 -10 5 9 21 l25 20
-22 15 -23 16 23 20 c12 10 18 21 12 24 -5 2 -17 9 -25 14 -13 9 -13 12 3 21
24 14 21 35 -5 43 l-23 6 24 19 c24 19 22 41 -5 41 -19 0 -18 9 4 33 9 11 13
22 7 24 -36 13 -39 22 -14 41 l24 20 -28 13 -27 12 21 23 22 23 -26 12 c-26
12 -37 35 -37 81 0 15 -4 30 -10 33 -10 6 -7 53 12 165 12 74 35 102 82 98 27
-3 35 -17 193 -368z m-1534 143 c-13 -2 -35 -2 -50 0 -16 2 -5 4 22 4 28 0 40
-2 28 -4z m478 -143 c5 0 9 -6 9 -14 0 -8 9 -18 21 -21 15 -5 18 -10 10 -18
-15 -15 -53 7 -68 39 -10 22 -10 25 3 20 9 -3 20 -6 25 -6z m425 -171 c-3 -34
-6 -73 -6 -85 0 -20 -5 -24 -32 -24 -18 0 -44 9 -57 19 -24 18 -24 21 -12 62
27 89 27 89 72 89 l42 0 -7 -61z m261 19 c-3 -8 -6 -5 -6 6 -1 11 2 17 5 13 3
-3 4 -12 1 -19z m1 -83 c0 -25 -4 -45 -9 -45 -10 0 -12 35 -3 68 9 34 13 27
12 -23z m16 -272 c7 -42 5 -61 -18 -184 -17 -87 -77 -302 -83 -296 -2 2 8 116
22 253 14 137 25 252 25 257 0 4 11 7 24 7 20 0 25 -6 30 -37z m-5374 -59 c0
-8 9 -32 19 -53 l20 -38 -56 -77 c-31 -42 -57 -75 -58 -74 -1 2 3 53 10 113 6
61 10 122 8 137 -4 26 -3 27 26 17 17 -6 31 -17 31 -25z m-91 -15 c10 -28 4
-117 -15 -227 -9 -58 -31 -20 -40 71 -10 106 -6 159 14 175 23 18 29 15 41
-19z m154 -5 c3 -3 3 -13 0 -21 -5 -12 -7 -12 -14 -1 -15 23 -4 40 14 22z
m-250 -44 c4 -16 9 -60 13 -97 8 -75 9 -75 -57 -16 -24 22 -25 26 -15 67 11
43 31 76 46 76 4 0 10 -13 13 -30z m337 -44 c0 -28 -10 -42 -37 -50 -18 -6
-23 -1 -33 29 -10 31 -10 39 5 55 16 18 19 18 41 3 13 -8 24 -25 24 -37z m-80
-56 c0 -3 -20 -16 -45 -28 l-44 -21 32 45 c29 41 33 43 44 28 7 -10 13 -21 13
-24z m-360 -14 c0 -28 -9 -56 -19 -56 -3 0 -12 4 -20 9 -11 7 -10 14 5 40 22
37 34 40 34 7z m88 -55 c57 -52 54 -65 -10 -40 -68 27 -66 25 -60 54 6 34 19
31 70 -14z m5607 29 c-3 -5 -11 -10 -16 -10 -6 0 -7 5 -4 10 3 6 11 10 16 10
6 0 7 -4 4 -10z m-5325 -26 c0 -8 -4 -12 -10 -9 -5 3 -10 10 -10 16 0 5 5 9
10 9 6 0 10 -7 10 -16z m5324 -23 c3 -5 -3 -11 -14 -14 -13 -3 -20 0 -20 9 0
15 26 19 34 5z m-24 -63 l-25 -9 23 -19 c28 -23 31 -79 9 -170 -17 -66 -120
-331 -151 -385 l-17 -30 5 40 c3 22 10 99 17 170 10 111 17 143 48 220 20 50
45 118 55 152 18 58 20 61 40 51 20 -11 20 -11 -4 -20z m-355 -53 c-3 -14 -7
-36 -10 -49 l-5 -24 -61 19 c-33 10 -71 19 -84 19 -18 0 -22 4 -18 20 5 17 14
20 72 20 36 0 73 5 81 10 24 16 31 12 25 -15z m-4715 -50 c0 -12 -12 -15 -52
-14 l-53 1 35 13 c47 18 70 18 70 0z m5230 -117 c30 -61 67 -128 82 -149 l28
-38 -47 -78 c-62 -105 -163 -316 -214 -449 -40 -107 -141 -412 -174 -531 -12
-42 -28 -71 -51 -94 -34 -33 -34 -33 -34 -8 0 13 16 193 36 399 l36 375 55
115 c82 170 168 386 187 471 23 96 24 99 34 99 4 0 32 -50 62 -112z m-5353 86
c-3 -3 -12 -4 -19 -1 -8 3 -5 6 6 6 11 1 17 -2 13 -5z m-569 -53 c3 -8 -4 -10
-25 -5 -36 9 -37 10 -29 30 6 14 9 15 28 2 12 -8 24 -20 26 -27z m12 -48 c0
-10 -5 -25 -10 -33 -9 -13 -12 -12 -25 4 -22 29 -18 46 10 46 17 0 25 -5 25
-17z m8167 -499 l21 -6 -20 -46 c-10 -26 -24 -58 -29 -72 -10 -24 -12 -21 -43
45 l-32 70 25 6 c36 9 53 10 78 3z m222 -40 c2 -2 -5 -23 -16 -46 -11 -24 -35
-85 -53 -136 -18 -52 -38 -96 -45 -98 -27 -11 -64 17 -94 70 -17 31 -31 61
-31 68 0 7 18 40 40 73 22 33 40 65 40 71 0 27 22 31 88 16 37 -8 69 -16 71
-18z m159 -135 c3 -75 -15 -279 -24 -279 -14 0 -204 115 -204 123 0 28 68 187
98 229 l33 47 47 -18 47 -19 3 -83z m138 15 l64 -36 -6 -39 c-4 -22 -7 -68 -8
-102 l-1 -62 -85 -41 c-47 -23 -87 -40 -89 -38 -3 3 38 315 45 342 5 17 8 16
80 -24z m-927 -66 c12 -28 20 -52 19 -53 -2 -1 -15 -5 -29 -8 -24 -6 -26 -3
-38 44 -11 43 -11 53 0 60 22 14 25 12 48 -43z m-80 -22 c14 -56 14 -56 -1
-56 -7 0 -40 -12 -73 -25 -57 -24 -61 -24 -73 -7 -28 37 -11 65 58 99 36 17
68 32 71 32 4 1 12 -19 18 -43z m1206 -56 c4 -7 -105 -83 -111 -77 -1 1 2 25
8 52 5 28 12 60 14 73 l5 23 39 -31 c22 -17 42 -35 45 -40z m-1077 -37 c5 -10
7 -24 5 -30 -6 -18 -42 -16 -49 2 -15 38 26 63 44 28z m1189 -65 c51 -51 63
-68 44 -68 -4 0 -59 -29 -121 -65 -61 -36 -125 -72 -142 -81 l-30 -15 7 93 c4
51 11 100 15 108 7 13 139 76 165 79 5 1 33 -22 62 -51z m-617 -28 c0 -40 -44
-56 -55 -20 -9 30 12 52 36 39 10 -5 19 -14 19 -19z m344 -92 c-4 -46 -10 -87
-14 -91 -4 -5 -33 17 -64 49 -31 31 -55 58 -54 59 8 7 124 64 131 65 4 0 5
-37 1 -82z m-844 12 c34 -34 13 -42 -41 -15 -27 14 -49 28 -49 30 0 15 72 3
90 -15z m-137 -5 c15 -14 32 -83 24 -92 -12 -12 -69 -4 -87 12 -25 23 -25 50
0 75 24 24 43 25 63 5z m1377 -39 c16 -25 30 -48 30 -53 0 -16 -87 -132 -151
-201 l-65 -70 -38 60 c-22 32 -59 81 -83 108 l-43 48 32 20 c116 69 240 127
280 131 4 1 21 -19 38 -43z m-1285 -3 c42 -20 43 -25 10 -43 -29 -16 -33 -13
-45 29 -10 36 -11 36 35 14z m1394 -182 l34 -70 -44 -49 c-24 -26 -53 -61 -64
-76 l-20 -29 -87 13 c-52 8 -89 18 -92 26 -5 12 223 264 234 258 3 -1 21 -34
39 -73z m-3974 -26 c-5 -53 -10 -65 -22 -61 -8 3 -21 6 -29 6 -10 0 -5 17 18
65 18 35 34 62 36 60 3 -2 1 -34 -3 -70z m-4948 11 c1 -1 4 -13 8 -29 7 -27 7
-27 -21 -17 -50 19 -64 65 -16 54 15 -4 28 -7 29 -8z m90 -32 c3 -9 0 -20 -8
-24 -17 -11 -25 -6 -32 20 -4 15 0 20 14 20 11 0 22 -7 26 -16z m8903 -125 c6
-22 14 -47 17 -55 4 -11 -5 -14 -43 -14 -27 0 -60 3 -73 7 -22 6 -21 8 30 54
30 26 55 48 56 49 1 0 7 -18 13 -41z m-1946 -91 c3 -16 2 -28 -3 -28 -4 0 -23
-3 -40 -6 -26 -5 -31 -3 -31 12 0 10 12 31 27 46 29 30 35 27 47 -24z m1708
14 l37 -7 -41 -43 c-22 -24 -41 -42 -42 -40 -2 2 -10 24 -18 51 -15 46 -15 47
6 46 11 0 38 -3 58 -7z m200 -38 c86 -20 83 -16 93 -116 l7 -66 -48 10 c-27 5
-99 20 -161 34 -62 13 -115 24 -118 24 -14 0 0 22 51 79 44 48 62 61 78 58 12
-3 56 -13 98 -23z m-7878 -71 c-37 -27 -45 -14 -17 29 l28 42 3 -29 c3 -19 -2
-33 -14 -42z m5966 7 c-21 -29 -23 -30 -36 -13 -19 25 -17 31 9 36 47 9 49 8
27 -23z m-40 -66 c0 -1 -9 -37 -19 -79 -22 -86 -38 -110 -69 -101 -53 17 -48
136 8 197 16 18 30 38 30 43 0 6 11 -5 25 -24 14 -19 25 -35 25 -36z m1851
-48 c57 -14 128 -33 156 -43 l53 -18 0 -62 c0 -49 -3 -63 -15 -63 -8 0 -47
-11 -87 -24 -73 -25 -236 -61 -243 -54 -2 2 1 37 6 78 6 40 9 104 7 142 -2 45
1 68 8 68 6 0 58 -11 115 -24z m-6573 -93 c166 -31 297 -60 290 -64 -7 -4 -60
-9 -118 -12 -63 -2 -83 -2 -50 3 30 3 46 8 35 9 -11 2 -29 4 -40 6 -11 2 -40
6 -65 10 -25 3 -67 10 -95 15 -84 17 -127 22 -210 25 -96 4 -235 39 -195 48
24 6 66 12 120 16 14 1 161 -24 328 -56z m4918 -8 c4 -14 3 -29 0 -33 -9 -8
-26 18 -26 41 0 26 19 20 26 -8z m-5133 -12 c-7 -2 -19 -2 -25 0 -7 3 -2 5 12
5 14 0 19 -2 13 -5z m50 -10 c-7 -2 -19 -2 -25 0 -7 3 -2 5 12 5 14 0 19 -2
13 -5z m50 -10 c-7 -2 -19 -2 -25 0 -7 3 -2 5 12 5 14 0 19 -2 13 -5z m87 -13
c20 -6 21 -8 5 -8 -11 0 -33 4 -50 8 -27 7 -27 8 -5 8 14 0 36 -4 50 -8z
m4913 -14 c6 -16 -1 -26 -19 -26 -7 0 -10 8 -7 20 6 23 19 26 26 6z m-4840 -3
c-7 -2 -19 -2 -25 0 -7 3 -2 5 12 5 14 0 19 -2 13 -5z m4882 -71 c15 -10 7
-202 -8 -202 -7 0 -29 5 -49 11 -38 10 -38 10 -38 63 0 43 6 61 30 94 30 41
45 49 65 34z m1855 -23 c0 -5 -5 -41 -11 -79 -12 -70 -12 -70 -48 -75 -20 -3
-67 -12 -104 -21 l-68 -15 -37 30 c-55 44 -105 98 -95 104 8 5 172 39 268 56
71 12 95 13 95 0z m-334 -149 c40 -37 42 -40 21 -44 -33 -7 -117 -14 -117 -10
0 8 44 94 48 94 3 0 24 -18 48 -40z m-3799 5 c14 -5 12 -10 -10 -33 -49 -51
-29 -117 37 -127 26 -5 48 -16 62 -33 20 -25 22 -25 80 -14 49 10 88 9 229 -6
94 -11 175 -16 180 -12 6 4 28 10 49 13 22 4 56 20 78 37 42 34 39 36 59 -50
6 -30 27 -100 45 -155 44 -137 46 -144 31 -113 -9 19 -17 24 -26 18 -8 -4 -25
-4 -38 1 -12 5 -23 6 -23 4 0 -3 -16 1 -35 9 -19 8 -35 12 -35 9 0 -3 -7 0
-15 7 -8 7 -15 9 -15 5 0 -4 -7 -2 -14 5 -8 6 -25 10 -38 9 -13 -2 -39 2 -58
9 -19 6 -48 13 -65 15 -16 3 -43 10 -59 16 -28 11 -86 22 -116 23 -8 0 -26 4
-40 9 -14 5 -40 11 -57 13 -18 2 -40 10 -50 17 -11 9 -14 10 -9 2 9 -15 5 -16
-26 -4 -13 5 -46 12 -73 15 -28 4 -71 13 -97 21 -27 8 -48 11 -48 8 0 -3 -6
-1 -12 4 -7 5 -25 9 -40 8 -16 0 -28 3 -28 8 0 5 -6 7 -14 4 -7 -3 -17 -2 -22
3 -5 5 -25 12 -44 15 -19 3 -42 8 -50 10 -8 2 -37 7 -65 10 -27 3 -52 9 -55
13 -3 4 -16 8 -30 8 -14 1 -41 5 -60 8 -31 6 -44 9 -83 15 -5 0 -5 6 -1 12 4
8 -12 9 -57 5 -35 -4 -77 -3 -94 2 -25 8 -19 9 35 9 121 0 235 9 260 20 14 6
76 19 139 28 79 11 123 23 139 36 14 10 30 19 36 19 6 0 31 13 56 29 25 15 51
27 58 25 6 -2 19 -6 29 -9z m1986 -1 c9 -10 -4 -34 -19 -34 -7 0 -18 9 -24 20
-9 17 -8 20 13 20 13 0 26 -3 30 -6z m292 -74 c28 -11 59 -100 51 -145 -8 -39
-38 -63 -54 -42 -17 22 -63 130 -72 170 l-8 38 31 -7 c18 -3 41 -10 52 -14z
m1815 -2 c0 -7 -7 -34 -16 -59 l-17 -46 -64 51 -64 51 63 6 c35 3 71 6 81 7 9
1 17 -4 17 -10z m-2145 -28 c0 -29 -32 -41 -41 -16 -9 24 4 48 23 44 12 -2 18
-12 18 -28z m1977 -17 c69 -72 108 -121 108 -133 0 -11 -53 -114 -65 -128 -5
-6 -101 101 -175 193 l-72 90 38 6 c22 3 60 7 85 8 40 1 49 -3 81 -36z m-155
-95 c49 -62 107 -139 127 -171 l38 -58 -27 -39 c-30 -43 -37 -44 -95 -15 -14
7 -38 15 -55 19 -26 6 -244 93 -253 102 -2 1 14 26 36 56 22 29 52 78 67 108
27 53 63 110 70 110 2 0 43 -51 92 -112z m-4557 74 c3 -3 -7 -3 -22 0 -23 4
-28 1 -31 -21 -3 -22 -4 -21 -6 7 -1 31 1 32 27 26 15 -4 29 -9 32 -12z m2769
-186 c5 -4 20 -20 31 -36 17 -24 18 -30 6 -30 -14 0 -86 104 -86 125 0 5 9 -4
19 -21 11 -18 24 -35 30 -38z m429 52 c13 -13 17 -138 5 -138 -4 0 -22 14 -40
32 -38 37 -42 69 -13 98 23 23 31 25 48 8z m77 -64 c31 -21 31 -28 0 -42 -35
-16 -35 -16 -35 23 0 40 2 41 35 19z m929 -44 c11 -11 -1 -30 -19 -30 -13 0
-35 29 -35 45 0 8 42 -4 54 -15z m-856 -37 c5 -32 -33 -54 -69 -41 -38 13 -37
24 9 47 43 23 56 22 60 -6z m-281 -5 c-3 -8 -6 -5 -6 6 -1 11 2 17 5 13 3 -3
4 -12 1 -19z m1311 -29 c80 -34 228 -105 240 -115 9 -6 -22 -46 -62 -78 l-43
-36 -101 50 c-55 28 -105 56 -109 63 -9 12 -43 128 -43 147 0 16 16 12 118
-31z m-1463 -23 l64 -55 -29 -10 c-28 -9 -32 -6 -80 49 -45 53 -48 62 -22 69
1 1 31 -23 67 -53z m1323 -16 c5 -22 8 -40 5 -40 -3 0 -18 9 -35 21 -28 20
-28 22 -12 40 24 27 30 24 42 -21z m-1100 -34 c6 -29 -15 -43 -35 -24 -14 14
-14 20 -3 33 16 19 34 15 38 -9z m-1478 -31 c0 -5 -5 -3 -10 5 -5 8 -10 20
-10 25 0 6 5 3 10 -5 5 -8 10 -19 10 -25z m2554 -1 c50 -33 54 -39 65 -92 6
-31 12 -88 14 -127 l2 -69 -45 -22 c-91 -43 -85 -48 -98 73 -33 303 -33 301
62 237z m-1189 -36 c-10 -43 -11 -44 -35 -23 -19 17 -19 19 -4 37 28 30 47 23
39 -14z m1070 10 c3 -13 7 -92 8 -176 l2 -152 -35 -10 c-53 -15 -56 -14 -89
38 -17 26 -56 80 -86 121 -30 40 -53 76 -50 80 2 4 37 20 77 36 40 15 91 41
113 56 49 34 53 35 60 7z m-950 -42 c33 -16 61 -30 62 -31 2 -1 -1 -27 -5 -58
l-7 -57 -63 42 -62 41 2 48 c2 27 5 48 8 46 3 -2 32 -16 65 -31z m540 -15 c-3
-12 -11 -21 -16 -21 -16 0 -22 29 -9 46 17 20 34 3 25 -25z m745 -61 l44 -23
-27 -21 c-15 -12 -40 -29 -57 -39 l-29 -18 -6 28 c-5 25 -28 100 -44 143 -3 8
13 1 34 -16 22 -17 60 -42 85 -54z m-1085 4 c33 -8 70 -14 83 -14 12 0 22 -3
22 -7 -1 -15 -35 -70 -62 -102 l-27 -32 -49 21 c-48 21 -50 22 -56 73 -9 82
-8 90 12 82 9 -5 44 -14 77 -21z m491 -51 c21 -32 55 -88 75 -125 l37 -67 -76
-7 c-46 -4 -77 -3 -79 3 -2 5 -24 45 -49 89 -50 88 -58 113 -45 132 7 12 52
28 87 31 6 1 28 -25 50 -56z m-196 5 c0 -13 -17 -56 -37 -96 -38 -74 -38 -74
-73 -68 -19 3 -52 11 -72 16 l-38 11 16 37 c8 20 26 56 40 80 l25 42 69 0 c66
0 70 -1 70 -22z m62 -158 c8 -19 14 -37 12 -39 -2 -2 -23 0 -46 3 l-44 7 21
65 20 66 10 -34 c6 -18 18 -49 27 -68z"/>
<path d="M4028 3243 c7 -3 16 -2 19 1 4 3 -2 6 -13 5 -11 0 -14 -3 -6 -6z"/>
<path d="M4068 3233 c7 -3 16 -2 19 1 4 3 -2 6 -13 5 -11 0 -14 -3 -6 -6z"/>
<path d="M4108 3223 c7 -3 16 -2 19 1 4 3 -2 6 -13 5 -11 0 -14 -3 -6 -6z"/>
<path d="M4148 3213 c6 -2 18 -2 25 0 6 3 1 5 -13 5 -14 0 -19 -2 -12 -5z"/>
<path d="M4668 3153 c7 -3 16 -2 19 1 4 3 -2 6 -13 5 -11 0 -14 -3 -6 -6z"/>
</g>
</svg>