<svg version="1.0" xmlns="http://www.w3.org/2000/svg"
 width="1280.000000pt" height="696.000000pt" viewBox="0 0 1280.000000 696.000000"
 preserveAspectRatio="xMidYMid meet">
<g transform="translate(0.000000,696.000000) scale(0.100000,-0.100000)"
fill="#fff" stroke="none">
<path d="M8893 6928 c-17 -18 -38 -48 -47 -66 -26 -51 -56 -199 -56 -279 0
-88 -15 -96 -25 -14 -4 32 -15 72 -25 89 -27 43 -118 114 -144 110 -57 -8
-101 -182 -94 -365 8 -193 49 -253 127 -188 16 14 42 52 58 83 15 31 40 75 55
96 15 21 28 52 28 68 0 28 18 40 24 16 2 -7 15 -51 29 -98 26 -87 56 -342 44
-373 -4 -10 -18 -17 -34 -17 -30 0 -98 -22 -143 -45 -27 -14 -50 -58 -50 -99
0 -12 -7 -30 -15 -40 -18 -23 -19 -69 -4 -98 9 -17 8 -19 -8 -14 -10 3 -31 8
-48 12 -31 8 -67 30 -123 77 -18 15 -42 27 -54 27 -12 0 -29 7 -38 15 -30 27
-130 39 -335 39 l-200 0 -63 -32 c-44 -23 -103 -41 -190 -58 -498 -98 -956
-273 -1357 -518 -120 -73 -171 -111 -257 -195 -60 -57 -126 -131 -147 -163
l-39 -59 -13 51 c-10 39 -23 60 -51 84 -62 53 -84 57 -508 86 -476 32 -762 85
-943 176 -116 58 -179 102 -307 213 -58 50 -130 104 -161 121 -56 30 -193 72
-299 92 -76 14 -605 3 -745 -16 -226 -30 -451 -87 -649 -164 -109 -42 -136
-99 -55 -117 43 -10 49 -28 6 -20 -30 6 -37 3 -47 -15 -16 -30 1 -133 35 -209
15 -33 24 -64 21 -69 -9 -16 -132 -53 -152 -46 -11 3 -47 17 -81 30 -74 29
-93 30 -93 5 0 -13 -10 -20 -30 -25 -23 -4 -35 -15 -45 -41 -33 -77 -11 -158
50 -191 28 -15 39 -15 98 -4 74 14 87 10 87 -26 0 -20 5 -24 29 -24 44 0 150
36 175 59 25 24 180 91 211 91 11 0 67 11 123 25 77 19 113 33 140 55 21 17
48 30 64 30 15 0 105 -25 200 -56 191 -62 217 -78 269 -170 20 -35 40 -56 62
-65 57 -23 188 -157 229 -233 44 -82 89 -131 178 -193 36 -25 138 -100 228
-167 182 -135 175 -125 187 -271 4 -44 14 -98 23 -120 24 -62 95 -164 156
-225 58 -57 66 -70 41 -70 -31 0 -9 -72 33 -109 21 -18 22 -22 7 -16 -20 7
-188 35 -212 35 -7 0 -13 7 -13 15 0 8 -4 23 -9 33 -5 9 -19 51 -31 92 -12 41
-24 81 -26 88 -4 14 -33 16 -53 3 -17 -11 -16 -54 2 -158 11 -61 11 -73 0 -73
-7 0 -17 10 -22 23 -17 43 -50 152 -53 177 -3 28 -40 39 -64 20 -20 -18 -18
-96 7 -175 23 -76 22 -80 -48 -121 l-45 -26 -102 100 c-110 110 -285 245 -403
313 -89 50 -313 145 -374 158 -24 6 -71 19 -104 31 -75 26 -200 46 -380 60
-244 19 -537 -24 -790 -118 -221 -82 -424 -202 -614 -365 -24 -20 -46 -35 -48
-33 -7 6 46 87 80 123 34 36 31 63 -8 63 -40 0 -173 -29 -250 -55 -38 -13 -74
-21 -78 -18 -12 7 1 52 24 81 10 14 19 36 19 50 0 21 -2 23 -16 11 -14 -12
-15 -8 -9 33 16 104 -54 207 -157 232 -54 13 -82 -55 -30 -75 77 -30 73 -26
61 -56 -14 -37 -4 -67 26 -81 26 -12 36 -49 11 -39 -8 3 -20 -1 -27 -9 -7 -8
-54 -106 -104 -217 -67 -148 -127 -259 -225 -417 -164 -265 -176 -287 -168
-296 16 -15 39 9 114 117 43 62 80 107 82 101 2 -6 -13 -49 -33 -94 -50 -114
-52 -121 -29 -117 24 5 209 373 217 431 7 49 13 56 34 35 15 -15 14 -20 -10
-74 -36 -83 -92 -228 -143 -373 l-44 -125 -64 -10 c-36 -6 -67 -13 -70 -15 -4
-5 -10 -102 -7 -127 0 -7 17 -19 35 -27 33 -14 35 -17 29 -50 -4 -27 -2 -36 8
-36 21 0 35 12 50 44 13 29 137 142 145 133 2 -2 -5 -37 -15 -79 -42 -162 -55
-293 -56 -533 0 -217 2 -237 28 -347 63 -267 127 -425 268 -665 101 -170 326
-413 463 -498 17 -10 52 -37 77 -60 25 -22 68 -51 95 -64 27 -13 61 -32 75
-42 65 -45 373 -157 539 -195 161 -38 399 -44 585 -15 203 32 441 87 500 116
29 14 63 25 76 25 13 0 40 10 59 22 19 12 60 34 90 49 69 33 211 120 290 178
130 95 389 388 415 469 9 29 42 84 77 126 15 17 35 54 46 82 11 27 39 91 61
142 23 51 57 152 76 224 19 72 38 135 43 140 4 4 80 -35 167 -88 175 -105 390
-213 473 -238 71 -20 487 -43 529 -28 30 10 169 1 206 -13 12 -5 17 -2 17 9 0
9 -7 19 -15 22 -8 4 -15 10 -15 14 0 17 29 18 91 4 44 -10 140 -16 304 -18
152 -2 266 -8 310 -17 52 -10 164 -14 435 -14 349 0 368 1 443 23 138 40 297
135 381 230 41 46 102 142 138 222 41 88 44 91 74 78 34 -16 49 1 37 38 -11
33 -33 44 -34 17 0 -10 -3 -13 -5 -7 -6 14 80 184 98 196 7 4 23 8 35 8 12 0
24 3 26 8 2 4 0 45 -3 92 -4 47 -3 89 0 93 4 5 19 -30 34 -77 14 -47 31 -88
36 -91 5 -3 7 -25 4 -49 -7 -48 0 -56 54 -65 31 -6 35 -11 55 -71 12 -36 38
-90 58 -120 19 -30 43 -67 52 -82 13 -20 29 -29 74 -38 108 -23 203 20 240
108 44 106 58 328 29 456 -19 80 -19 79 -6 71 6 -3 13 1 16 9 3 9 13 16 21 16
8 0 42 26 76 59 56 53 64 57 86 48 19 -9 26 -8 37 8 13 17 13 21 -3 33 -11 8
-19 28 -20 55 -14 241 -24 319 -58 442 -29 103 -29 102 -2 127 14 13 47 61 73
108 103 184 124 217 172 277 28 35 57 85 67 115 10 29 36 87 60 128 23 41 56
102 73 135 32 66 102 325 102 382 0 33 1 35 28 29 l27 -7 -24 19 c-28 23 -20
46 12 36 18 -5 20 -4 10 7 -25 25 -11 45 84 119 104 82 146 125 170 175 14 30
58 65 82 65 19 0 12 -18 -9 -25 -11 -3 -20 -14 -20 -24 0 -16 74 -141 84 -141
2 0 22 6 44 14 40 15 42 14 72 -14 35 -33 31 -55 -14 -79 -35 -19 -40 -41 -16
-73 26 -36 23 -41 -85 -148 -89 -88 -190 -235 -220 -320 -20 -57 -20 -201 1
-271 9 -30 34 -88 56 -129 43 -81 162 -253 197 -284 11 -11 21 -26 21 -33 0
-8 -25 -42 -55 -76 -165 -182 -301 -447 -364 -707 -47 -195 -55 -270 -55 -480
-1 -177 2 -207 27 -324 16 -71 42 -170 58 -220 87 -267 319 -624 514 -791 32
-27 79 -70 104 -94 25 -24 64 -52 86 -63 22 -10 65 -36 95 -58 30 -22 78 -47
105 -56 28 -9 59 -23 70 -29 11 -7 44 -20 73 -30 40 -13 50 -20 43 -29 -11
-14 -3 -15 319 -61 362 -52 705 -56 870 -11 80 21 376 171 440 222 30 24 81
65 113 91 32 26 75 62 95 78 20 17 84 80 141 140 268 284 437 656 480 1057 80
735 -324 1475 -986 1807 -211 105 -357 152 -580 186 -57 8 -105 15 -108 15 -3
0 -5 4 -5 9 0 5 14 11 32 15 49 10 169 68 165 80 -13 38 -605 56 -772 23 -49
-10 -106 -21 -125 -23 l-35 -6 -152 374 c-96 235 -149 376 -143 382 6 6 10 18
10 28 0 10 12 25 28 35 15 9 68 58 117 107 50 50 107 103 126 117 93 70 154
394 115 615 -8 50 -28 128 -43 173 l-28 83 -37 -5 c-36 -5 -37 -4 -43 35 -4
22 -14 42 -21 45 -8 3 -31 30 -50 60 -19 30 -40 53 -47 50 -8 -2 -18 23 -30
72 -22 95 -74 261 -87 281 -8 12 -23 2 -80 -57 -63 -65 -111 -95 -126 -80 -3
2 6 22 21 42 14 21 25 46 25 55 0 10 10 30 21 45 23 29 27 71 10 104 -6 11
-11 51 -11 90 0 60 -3 74 -26 100 -22 27 -28 29 -50 19 -32 -15 -42 -3 -19 22
18 20 18 21 -8 48 -17 18 -27 39 -27 59 0 51 -16 56 -150 48 -66 -4 -132 -10
-148 -14 -30 -8 -39 -33 -24 -65 6 -11 13 -58 15 -104 5 -82 5 -83 -29 -128
-19 -24 -34 -48 -34 -52 0 -4 -32 -9 -71 -10 -40 -2 -84 -9 -100 -17 -40 -21
-73 -20 -64 3 4 9 9 70 12 135 5 108 4 119 -13 132 -11 9 -30 12 -45 9 -27 -5
-27 -5 -31 65 -3 60 -8 76 -36 113 -18 24 -44 60 -58 81 -25 39 -77 77 -105
77 -8 0 -29 -15 -46 -32z m246 -480 c-7 -51 -16 -97 -21 -102 -4 -6 -8 -20 -8
-32 0 -21 -20 -41 -100 -103 -17 -13 -33 -22 -35 -20 -9 10 -32 119 -24 119 4
0 44 37 89 83 56 57 83 94 91 121 17 64 22 33 8 -66z m32 -145 c-9 -16 -10
-16 -11 4 0 12 3 30 7 40 7 16 8 16 11 -4 2 -12 -1 -30 -7 -40z m-174 -530
c10 -30 34 -52 49 -46 16 6 67 -98 62 -126 -7 -34 -46 -23 -123 33 -41 31 -81
56 -88 56 -7 0 -21 6 -31 13 -15 11 -11 16 46 50 71 42 76 43 85 20z m926
-1759 c53 -131 106 -262 116 -290 l19 -51 -151 -100 c-156 -103 -225 -143
-250 -143 -8 0 -20 -6 -26 -14 -9 -11 -6 -17 16 -31 43 -29 83 -33 179 -20 49
7 90 11 92 10 3 -3 -137 -115 -144 -115 -4 0 -28 -18 -54 -40 l-48 -40 -83
120 c-149 213 -180 285 -182 420 0 87 16 169 47 225 34 63 135 181 185 217 60
43 163 98 176 94 6 -1 54 -110 108 -242z m-5346 -774 l42 -31 -6 -72 c-3 -40
-10 -76 -16 -82 -7 -7 -8 -4 -4 7 6 18 -42 78 -61 78 -5 0 -9 19 -8 43 0 23
-3 52 -7 65 -12 32 10 29 60 -8z m200 -37 c9 -4 10 -9 4 -17 -6 -7 -14 -32
-20 -56 -9 -40 -8 -49 13 -80 l23 -36 -55 28 c-30 15 -63 28 -72 28 -43 0 -47
39 -14 118 14 34 15 34 60 27 26 -3 53 -9 61 -12z m264 -11 c14 -9 46 -34 70
-56 l44 -39 -80 7 c-44 3 -86 2 -93 -3 -10 -6 -13 -24 -10 -56 2 -29 -1 -50
-8 -52 -6 -2 -34 17 -63 43 -44 39 -51 51 -51 82 1 57 25 80 90 85 30 2 60 4
65 5 6 1 22 -6 36 -16z m-2651 -88 c78 -16 226 -77 248 -103 20 -24 14 -68
-15 -119 l-28 -47 -57 -1 c-33 -1 -58 3 -58 9 0 6 -22 8 -61 3 -34 -3 -80 -1
-105 5 -32 8 -56 8 -86 1 -23 -6 -43 -10 -45 -9 -1 1 -5 59 -9 128 -7 125 -7
126 17 143 26 19 61 17 199 -10z m-411 -31 c7 -16 15 -63 18 -105 l6 -78 -89
39 c-49 21 -118 49 -153 62 l-64 23 44 19 c24 10 55 19 69 19 14 0 45 11 70
24 59 32 84 31 99 -3z m9166 -3 c150 -22 285 -67 285 -95 0 -18 -65 -151 -79
-159 -4 -3 -40 5 -79 19 -87 30 -233 55 -328 55 -46 0 -75 5 -81 13 -13 17
-36 144 -29 162 4 12 27 15 123 15 65 0 150 -5 188 -10z m-2615 -62 c0 -19 -2
-20 -10 -8 -13 19 -13 30 0 30 6 0 10 -10 10 -22z m-3320 -26 c-1 -9 -9 -33
-20 -52 l-19 -35 -1 43 c0 23 5 42 10 42 6 0 10 7 10 16 0 8 5 12 10 9 6 -3
10 -14 10 -23z m6506 -168 c125 -97 274 -270 274 -319 0 -18 -15 -29 -81 -59
-44 -20 -86 -36 -93 -36 -6 0 -30 28 -53 63 -49 74 -122 150 -218 225 -38 31
-71 57 -72 57 -3 1 53 138 67 164 11 21 11 21 53 -6 23 -14 78 -54 123 -89z
m-1462 -87 c16 -37 26 -70 23 -73 -9 -10 -97 82 -97 101 0 22 31 59 40 48 4
-5 19 -39 34 -76z m-7307 53 c31 -11 60 -17 64 -14 5 3 9 0 9 -5 0 -6 -4 -11
-9 -11 -4 0 -25 -13 -46 -30 -20 -16 -42 -27 -47 -24 -5 3 -22 0 -39 -6 -22
-9 -32 -10 -43 -1 -9 7 -29 9 -55 5 -31 -5 -41 -3 -41 7 0 18 76 87 103 92 41
8 47 7 104 -13z m-1481 -171 c60 -61 115 -117 122 -125 12 -12 7 -23 -29 -72
-24 -31 -57 -90 -75 -130 -42 -96 -43 -97 -96 -84 -24 6 -88 19 -142 28 -146
25 -166 52 -130 175 28 96 91 203 154 263 32 31 65 56 73 56 8 0 63 -50 123
-111z m9626 70 c93 -19 116 -49 86 -114 -11 -25 -71 -50 -105 -43 -9 2 -33 40
-54 86 l-38 82 29 0 c16 0 53 -5 82 -11z m-934 -166 c-26 -26 -29 -27 -65 -14
-48 17 -83 49 -83 74 0 11 12 36 26 55 l27 34 61 -61 61 -61 -27 -27z m1273 9
c47 -31 130 -113 140 -139 11 -29 -1 -56 -37 -79 -37 -25 -93 -5 -155 55 l-50
49 17 38 c9 22 21 51 27 67 13 32 22 33 58 9z m-307 -72 l26 -9 -17 -37 -18
-36 -12 28 c-12 29 -17 64 -9 64 3 0 16 -4 30 -10z m955 -94 c20 -24 69 -179
87 -273 17 -91 25 -275 12 -288 -11 -11 -51 -9 -150 6 l-88 13 0 91 c0 109
-13 191 -45 292 l-23 75 51 24 c29 13 68 35 87 48 41 29 53 31 69 12z m-2167
-38 c31 -60 37 -102 22 -157 -18 -69 -18 -70 -61 -60 -73 15 -83 20 -74 38 4
9 14 38 20 66 17 69 51 145 65 145 6 0 19 -15 28 -32z m1452 -18 c66 -70 62
-94 -20 -128 -63 -25 -114 -25 -114 1 0 18 72 177 80 177 4 0 28 -23 54 -50z
m-6223 -104 c31 -21 74 -84 64 -94 -5 -6 -135 99 -135 109 0 17 35 9 71 -15z
m6566 -97 c30 -72 31 -161 3 -189 -14 -14 -32 -19 -60 -18 -37 1 -44 6 -66 43
-16 28 -25 60 -27 96 l-2 53 55 38 c30 20 60 36 65 34 6 -1 20 -27 32 -57z
m-8512 41 c3 -5 18 -7 33 -5 20 4 42 -5 82 -33 l55 -38 -2 -79 c-2 -99 -24
-159 -62 -175 -25 -10 -49 -6 -171 26 -188 50 -242 87 -191 131 26 21 27 39 4
48 -14 5 3 18 67 50 67 34 88 40 99 31 11 -8 15 -8 18 1 2 7 11 9 19 6 9 -3
14 2 14 14 0 30 22 45 35 23z m7316 -30 c23 -13 25 -43 4 -60 -17 -14 -111 -5
-121 12 -4 5 -1 21 7 34 10 19 20 24 51 24 22 0 48 -5 59 -10z m-9276 -39 c44
-12 97 -26 118 -32 l37 -10 0 -68 c0 -38 7 -108 15 -156 16 -92 13 -125 -11
-125 -8 0 -60 -23 -117 -51 -56 -28 -118 -57 -139 -65 -36 -13 -36 -13 -53 22
-47 98 -56 146 -56 284 -1 136 7 178 39 213 20 22 52 20 167 -12z m10288 -33
c11 -45 19 -127 14 -141 -5 -12 -16 -12 -78 0 -132 24 -143 62 -36 122 84 47
93 49 100 19z m-1649 -68 c39 -14 34 -55 -19 -157 -47 -90 -54 -132 -33 -178
21 -47 108 -72 158 -45 15 8 21 2 41 -48 13 -31 24 -60 24 -64 0 -12 -135 -88
-157 -88 -44 0 -106 227 -123 450 -9 111 2 140 49 140 19 0 46 -4 60 -10z
m594 -106 c54 -7 82 -24 39 -24 -14 0 -44 -7 -68 -15 -40 -15 -45 -14 -56 2
-7 9 -13 25 -13 36 0 15 5 18 23 14 12 -3 46 -9 75 -13z m16 -148 c-3 -8 -19
-16 -35 -20 -41 -8 -44 -7 -44 5 0 7 15 13 34 15 19 3 37 6 39 9 9 9 11 5 6
-9z m1006 -12 c13 -13 -6 -66 -41 -115 l-22 -31 -58 58 c-62 61 -67 72 -46 93
15 15 151 11 167 -5z m-8404 -25 c81 -16 155 -34 165 -40 22 -11 32 -55 21
-94 -7 -26 -14 -31 -53 -37 -49 -7 -268 -61 -340 -83 -67 -21 -84 -19 -113 15
l-26 31 23 34 c12 19 28 35 35 35 6 0 12 9 12 21 0 29 18 59 36 59 10 0 13 7
8 24 -4 19 1 27 28 44 18 11 38 21 45 21 7 1 78 -13 159 -30z m8577 10 c41
-11 41 -14 10 -103 -20 -57 -89 -146 -114 -146 -31 0 -79 53 -79 87 0 42 17
92 45 135 22 33 30 38 63 38 20 0 54 -5 75 -11z m386 -35 c47 -2 89 -8 93 -12
9 -9 -8 -107 -29 -172 -41 -121 -186 -364 -222 -372 -7 -2 -51 35 -96 82 l-84
84 35 46 c58 75 112 180 141 272 27 84 29 88 53 82 13 -3 62 -7 109 -10z
m-1346 -65 c15 -24 -48 -169 -74 -169 -10 0 -44 24 -76 54 l-57 53 84 42 c90
43 106 46 123 20z m561 -108 c37 -38 39 -42 23 -59 -20 -22 -97 -62 -120 -62
-25 0 -35 141 -13 175 l17 26 27 -20 c15 -11 45 -38 66 -60z m-9707 -8 c44
-55 102 -110 155 -148 19 -13 18 -15 -17 -86 -51 -104 -103 -199 -116 -215
-20 -25 -64 -15 -130 29 -91 60 -189 164 -228 241 -43 83 -38 107 26 136 123
55 249 108 254 106 4 0 29 -29 56 -63z m8939 8 c22 -17 52 -52 67 -80 l27 -49
-22 -35 c-29 -45 -61 -61 -91 -45 -12 6 -50 38 -84 71 -82 78 -83 96 -5 136
31 17 59 30 63 31 3 0 23 -13 45 -29z m469 -72 c8 -37 15 -73 15 -78 0 -7 -25
-11 -62 -11 -73 0 -108 8 -109 24 0 6 17 45 38 87 l38 76 32 -15 c28 -14 34
-23 48 -83z m-7750 -4 c-14 -21 -25 -42 -25 -47 0 -14 -58 -98 -93 -135 -36
-39 -57 -41 -101 -10 -40 27 -136 130 -136 146 0 6 11 11 25 11 28 0 104 16
150 32 17 5 44 9 62 9 17 -1 34 3 38 9 3 5 24 10 45 10 21 0 42 5 45 11 4 6 9
8 11 6 3 -3 -6 -22 -21 -42z m8182 -47 c52 -49 17 -113 -97 -173 -99 -51 -116
-46 -125 41 -7 62 -6 67 20 94 59 62 157 80 202 38z m-1222 -75 c67 -80 156
-159 243 -215 70 -46 69 -37 17 -152 -18 -40 -40 -76 -49 -79 -26 -10 -135 70
-255 186 -81 79 -194 223 -188 241 4 13 135 83 159 85 9 0 42 -29 73 -66z
m-7386 -90 c103 -100 111 -111 111 -145 0 -45 -24 -66 -159 -143 -81 -47 -101
-54 -200 -69 -80 -12 -116 -14 -130 -7 -24 13 -30 59 -33 246 l-3 130 55 27
c50 24 190 65 231 67 9 1 67 -47 128 -106z m8163 68 c31 -22 35 -29 33 -68 -2
-62 -21 -78 -98 -78 -49 1 -157 25 -175 40 -2 2 12 33 30 70 l33 67 71 -4 c54
-2 79 -9 106 -27z m-9004 -51 c42 -13 92 -20 146 -20 91 0 106 -8 106 -55 0
-18 9 -74 20 -126 21 -102 26 -184 10 -174 -5 3 -10 -1 -10 -9 0 -23 -27 -33
-110 -41 -86 -8 -205 17 -294 62 -97 48 -104 66 -58 154 27 51 125 229 126
229 1 0 30 -9 64 -20z m9783 -152 c33 -28 59 -57 59 -64 0 -14 -118 -115 -153
-131 -12 -6 -67 -31 -122 -57 -171 -78 -270 -105 -279 -73 -3 6 -7 57 -10 112
l-6 101 78 28 c85 31 178 83 261 145 l54 40 30 -25 c16 -14 56 -48 88 -76z
m-1070 -103 c67 -24 214 -45 314 -45 l90 0 20 -106 21 -106 -26 -10 c-31 -13
-232 -3 -355 16 -112 18 -215 53 -215 72 0 20 88 194 99 194 5 0 28 -7 52 -15z"/>
</g>
</svg>
