<svg version="1.0" xmlns="http://www.w3.org/2000/svg"
 width="1280.000000pt" height="796.000000pt" viewBox="0 0 1280.000000 796.000000"
 preserveAspectRatio="xMidYMid meet">
<g transform="translate(0.000000,796.000000) scale(0.100000,-0.100000)"
fill="#fff" stroke="none">
<path d="M8343 7943 c-2 -10 -53 -182 -112 -383 -59 -201 -105 -368 -102 -372
3 -3 101 -32 218 -63 l211 -57 7 -90 c4 -49 5 -91 3 -93 -2 -2 -80 -13 -173
-25 -243 -30 -219 -18 -211 -104 l7 -73 -53 -6 c-29 -4 -79 -7 -110 -7 -100 0
-153 -17 -192 -60 -57 -63 -61 -151 -11 -235 30 -53 81 -89 148 -107 39 -10
77 -9 232 6 102 10 187 17 189 15 2 -2 -10 -48 -25 -102 -60 -206 -62 -359 -9
-607 64 -300 137 -545 255 -845 76 -194 85 -236 85 -373 -1 -194 -20 -267
-229 -877 -106 -308 -201 -579 -212 -602 -24 -49 -90 -113 -149 -143 -162 -83
-465 -86 -855 -9 -199 40 -709 178 -726 197 -5 5 24 277 30 288 1 1 21 7 45
13 52 13 121 63 153 110 53 78 55 160 9 297 -171 507 -446 932 -685 1058 -151
79 -272 91 -606 56 -561 -57 -965 -49 -1312 25 -65 14 -197 52 -293 85 -236
81 -298 80 -410 -4 -34 -26 -37 -26 -135 -20 -55 4 -106 10 -114 14 -8 4 -29
64 -47 135 -18 70 -34 128 -36 129 -6 5 -417 46 -578 57 -171 13 -471 7 -565
-11 -178 -33 -265 -94 -265 -184 0 -14 -6 -26 -12 -26 -7 0 -124 16 -259 35
-345 48 -518 65 -673 65 -148 0 -213 -10 -296 -47 -98 -43 -130 -88 -130 -182
l0 -59 251 -135 251 -135 -101 -105 c-56 -57 -101 -108 -101 -113 1 -5 109
-83 241 -173 132 -90 236 -167 232 -171 -4 -4 -122 -98 -260 -210 -155 -124
-250 -207 -246 -214 4 -6 35 -51 69 -101 l61 -90 -374 -565 -375 -565 68 -62
c38 -35 72 -63 75 -63 4 0 143 148 310 329 167 181 308 330 313 330 5 1 17 -6
27 -15 16 -14 13 -23 -46 -138 -71 -142 -124 -293 -157 -451 -20 -95 -23 -140
-23 -330 0 -193 3 -234 24 -335 88 -425 318 -794 661 -1059 247 -191 533 -314
855 -368 127 -21 443 -24 565 -4 420 66 777 246 1060 531 84 85 126 135 234
282 l27 38 818 0 817 0 85 86 84 86 495 -11 c272 -6 700 -16 950 -21 250 -5
512 -12 582 -15 188 -8 482 28 629 76 279 92 429 291 501 663 17 93 21 160 25
411 l4 300 44 66 c185 283 470 550 745 702 65 35 282 127 246 104 -215 -141
-287 -198 -416 -334 -220 -230 -376 -520 -444 -823 -86 -390 -41 -779 134
-1137 276 -564 824 -942 1472 -1012 459 -51 938 80 1319 360 126 92 321 294
408 422 219 324 325 689 308 1062 -21 445 -195 837 -518 1170 l-59 60 26 65
c35 85 30 152 -19 253 -52 108 -85 147 -201 234 -359 270 -866 444 -1642 563
l-141 22 -38 137 c-133 475 -316 871 -545 1179 -128 171 -367 398 -529 501
l-53 35 6 50 c3 28 6 69 6 92 l0 41 103 0 c111 1 213 20 279 54 59 30 130 106
160 169 46 99 53 149 53 385 l0 220 -31 66 c-19 38 -52 85 -82 115 -44 44 -64
54 -139 77 -202 62 -380 82 -639 73 l-181 -7 -7 115 c-16 277 -60 389 -161
414 -94 24 -96 24 -102 5z m-5804 -4823 c46 -5 86 -12 89 -14 3 -3 -62 -142
-143 -310 l-148 -304 -46 -5 c-44 -4 -55 1 -309 151 -260 154 -262 155 -298
214 -42 69 -49 58 80 124 145 74 315 123 511 147 62 8 183 7 264 -3z m8569 -1
c480 -52 887 -333 1102 -759 339 -673 28 -1493 -685 -1804 -199 -87 -385 -120
-620 -113 -227 8 -382 47 -586 146 -380 186 -662 559 -734 969 -20 114 -20
332 0 447 123 701 796 1193 1523 1114z m-9645 -870 c144 -84 263 -153 265
-154 2 -2 -8 -34 -21 -73 -130 -357 40 -738 399 -895 137 -60 320 -74 476 -35
80 19 90 20 101 5 6 -8 55 -65 107 -126 l95 -111 263 0 264 0 -57 -53 c-178
-163 -418 -286 -670 -342 -114 -26 -369 -31 -500 -10 -418 65 -775 303 -994
664 -64 106 -107 209 -144 351 -28 106 -30 128 -31 295 -1 141 3 200 18 270
36 171 122 382 152 371 8 -3 133 -74 277 -157z"/>
<path d="M10838 2490 c-239 -44 -441 -188 -543 -391 -56 -109 -70 -175 -69
-319 0 -119 4 -145 27 -216 70 -210 255 -390 475 -462 114 -36 287 -42 402
-13 271 67 475 264 541 520 22 85 27 237 10 313 -59 261 -262 475 -521 548
-84 23 -248 34 -322 20z"/>
</g>
</svg>