<svg xmlns="http://www.w3.org/2000/svg" width="1706.667" height="1152" version="1.0" viewBox="0 0 1280 864"><path fill="#fff" d="M792 1.9c-41.4 9-69.4 43.2-71.7 87.2l-.6 11.6-9.6.6c-5.3.4-34.1 1.3-64.1 2.2s-61.1 1.9-69.3 2.3l-14.8.7 8.2 10 8.1 10-5.3.6c-3 .4-27.9 1.2-55.4 1.9s-51.6 1.5-53.6 1.9l-3.7.6 17.1 14.4 17 14.4 49.3-.7c27.2-.4 49.4-.5 49.4-.2 0 .9-23.6 17.3-76 52.8-27.2 18.4-62.1 42.2-77.5 52.8s-34.1 23.5-41.6 28.6-14.1 9.9-14.7 10.7c-.6.7-5.2 24.9-10.1 53.6s-9.1 52.4-9.3 52.6c-.1.2-31.6.8-69.8 1.4-75.7 1.1-77.1 1.2-103.6 7.6-28.5 6.8-49.5 16.1-82.4 36.5-28.8 17.8-54 28.6-73 31.4l-8.5 1.2-.8 11.5c-.4 6.2-.6 14.6-.5 18.5.3 6.5.7 7.5 3.9 11.5 6.7 8.2 7 6.3-4.5 29-10.6 20.8-14 30.3-18.6 50.7-3.4 15.5-7 46.8-5.6 49.1.4.6 3.4-.3 7.4-2.2 6.5-3.1 7-3.2 19.7-3 7.2 0 15 .5 17.5 1l4.5.9.7 13.9c.8 17.2 3.5 32.7 7.4 42.9.7 1.8.4 1.9-3.5 1.2-2.3-.3-8.1-2.6-12.9-5s-9.7-4.7-11-5l-2.2-.7 2 5c4.2 10.7 3.4 21.5-2.1 29.3-1.9 2.6-1.9 2.8-.2 5.5 2.8 4.3 2.4 16.9-1 25.5-1.4 3.8-2.4 6.8-2.3 6.8.2 0 5.6-2 11.9-4.4 13-5.1 23.9-7.6 32.5-7.6h5.9l4.4 6.2c15.5 22.3 30.1 37.1 53.7 55C163 847 198 859.9 238.1 863.1c49.3 3.9 102.4-14 141.2-47.6 4.8-4.1 9.9-8 11.3-8.5 1.4-.6 6.4-1 11.2-1s20.9-.7 35.7-1.5c14.9-.9 30.6-1.6 35-1.6 4.4.1 13.6-.3 20.5-.9 6.9-.5 28.5-1.6 48-2.5 19.5-.8 48.3-2.2 64-3s44-2.1 63-3c63.7-2.8 76.3-3.6 85.1-5.5 28.9-6.2 51.8-23.3 66.5-49.6 10.3-18.5 11.9-24.8 11.8-46.9 0-15-.4-18.1-2.6-26.6-5.4-20-14-34.3-30.4-50.5l-11.2-11.1 6.1-7.9c5.4-7.1 21.5-28.1 42.7-55.9 4.2-5.5 20.5-26.7 36.1-47 15.7-20.4 33.3-43.3 39.1-51l10.5-14 28.4-12.7c15.7-6.9 29.3-12.8 30.3-13 1.5-.2 2.5 1.9 6.2 14.2 2.4 8 4.3 14.9 4.3 15.5 0 .5-5.4 3.6-11.8 6.8-33.4 16.4-61.8 37.9-77.6 58.7-50 66-66.3 126.9-53.5 200.2 4.8 27.4 13.6 59.6 19.2 69.8 6.1 11.1 14.8 25 15.7 25 .4 0 5.9-3.2 12.2-7.1l11.3-7.2 3.6 4.4c27.5 33.9 58.7 56.9 93.5 68.9 26.3 9 43.5 12 70.1 12q46.95 0 90.9-22.2c21.6-10.8 34.6-20.2 51.9-37.2 20.5-20.1 34.2-40 45.3-65.6 11.7-27 17-50.4 18-79.5 1.3-40.2-9.1-81.1-29.3-114.6-1.9-3.1-3.4-5.9-3.4-6.2 0-.2 5.2-4.3 11.5-9.1 6.3-4.7 11.5-9 11.5-9.4 0-2.8-25.1-32.4-36.2-42.7-26.8-24.8-64.1-45-99.8-54.1-22.9-5.8-52.7-8.4-73.2-6.6-7.3.7-14.6 1.5-16.3 1.8l-3 .5-4.3-16.8c-3.1-12.2-4.2-18.3-4-22.3l.3-5.5 15.8.3 15.7.4v-21.4c0-11.8-.3-39.7-.7-62.1-.5-35.9-.8-40.6-2.2-41-2.7-.7-37.9 1.2-52 2.8-16.4 1.9-24.7 5-34.1 12.9-7.8 6.4-11.7 11.2-16.4 19.7-4.4 8.2-6.3 15.2-7.1 26.4l-.7 9h-23.5l-8.8 4.4-8.8 4.5-10.6-1.8c-5.8-1-18.9-3.3-29.1-5.2s-43.4-7.9-73.9-13.4-55.5-10.1-55.8-10.3c-.2-.2 3.2-5.2 7.4-11 7.2-9.7 16.9-22.4 61.6-80.6 8.7-11.3 17.8-23.6 20.2-27.2 6-9.1 9.6-11.7 19.2-13.5 12.4-2.3 22.3-5.6 23.9-7.8 1-1.5 1.4-5.7 1.4-16.8 0-16.3.2-16.8 7-16.8 1.7 0 4.6-.7 6.5-1.4 4.2-1.8 4.1-1.4 1.5-19.6-1.1-7.4-2-14.9-2-16.7 0-3 .2-3.2 4.5-3.9 2.5-.3 4.7-.9 4.9-1.3.7-1.4-3.4-19.2-5.9-25.5-8.3-20.7-23.8-37.7-43.2-47.5C831.9.9 809.5-2 792 1.9m-32.2 384.7c2.8.4 3.2.8 2.1 2-2.2 2.7-55 43.4-56.2 43.4-1.6 0-4.6-2-34.7-23.6-26.1-18.8-30-21.7-30-22.9 0-.7 113.7.3 118.8 1.1m341.1 130.9c4.5.9 11.2 2.5 14.9 3.6 13.8 4.2 36.7 16.1 35.8 18.5-.4 1.1-44.8 58.2-50.2 64.7l-2.3 2.8-8.8-2.7c-4.8-1.5-8.9-2.8-9-2.9-.7-.4-20.3-81.2-20.3-83.3 0-1.1.8-2.3 1.8-2.6 3.2-1 29.9.4 38.1 1.9m-495.2 7.1c14.2 8.2 26.6 16.9 31.2 21.9 3.2 3.5 4.1 5.2 4.1 8 0 6.3-10.6 15.7-26.8 23.9l-5.4 2.7.8-2.3c4.1-13.1 4.6-25.5 1.3-34.5-2.4-6.4-7.2-14.4-12.6-21.1-1.9-2.3-3.2-4.2-2.9-4.2.2 0 4.9 2.5 10.3 5.6m417.4 4.1c.6 1.5 5.3 19.9 10.5 40.8s9.7 38.7 10 39.6c.3 1.1-1.7 4.1-5.1 8-14.2 16.1-18.5 32.6-13.8 52.7 1 4.5 1.3 7.6.7 8.1-.5.6-15.3 9.2-32.9 19.3s-33.5 19.3-35.3 20.3c-4.4 2.6-5.9 1.5-9.5-7.1-7.4-18-10.7-35.3-10.7-56.4 0-33.4 10.8-62.1 34.1-90.7 10.9-13.2 25.9-25 42.8-33.5 4.1-2.1 7.7-3.8 7.9-3.8.1 0 .7 1.2 1.3 2.7m-747.1.7c8.8 2 19.9 5.2 21.8 6.5 1.1.6-.4 4.6-6.6 17.8-4.4 9.3-10.1 21.6-12.7 27.4-2.6 5.7-5.3 11-6 11.8-1.1 1.1-2.5 1.1-7.7.2-3.6-.6-10.4-1.1-15.2-1.1-43.9 0-77.5 38.6-71.7 82.5.7 5.3 2.1 12.2 3.2 15.2 1 3.1 1.7 5.8 1.4 6.1-1.5 1.6-62.2 8.9-63.4 7.6-.6-.5-1.9-5.5-3-11.1-2.6-12.8-2.9-38.2-.5-51.7 4.8-27.4 18.9-54.5 38.8-74.1 21.7-21.5 47.9-34 81.1-38.9 6.6-1 33.3.2 40.5 1.8m54.8 24.1c9.7 7.3 20.9 18.2 27.6 26.9 9 11.7 10.1 13.7 8.5 14.7-1.9 1.2-64.6 1.2-65.3 0-1.1-1.7 20.1-46.1 22-46.1.6 0 3.9 2 7.2 4.5m842.3 3.2c17.4 17.8 28.3 37.5 34.6 62.2 3.1 12.6 4 24.9 3.1 42.6-1.1 21.3-4.3 33.5-13.8 53.2-7.3 14.9-17.5 28.7-30.3 40.9-15 14.4-31 23.9-52 30.9-27.3 9.1-63.1 8.4-88.7-1.7-25.5-10-48-27.1-62.9-47.8-3-4.2-3.1-4.5-1.4-5.8 2-1.4 39.2-22.4 59.2-33.4 6.8-3.7 13-6.8 13.6-6.8.7 0 3.4 1.7 6 3.9 21.1 17.4 50 15.8 69.5-3.9 10.8-10.9 15-21.2 15-37.2 0-12-3.4-21.5-12.2-33.9-.9-1.3 2.5-6.3 19.7-29 27.5-36 31.4-40.9 32.8-40.9.7 0 4.2 3 7.8 6.7m-837 127.7c34.8 12.4 46.9 17.3 46.9 19.1 0 2-5.9 17.8-7.4 19.8-1.3 1.7-3.2 1.1-30.6-8.7-16.1-5.8-29.5-10.7-29.8-11s.9-4.1 2.7-8.5c1.7-4.4 3.1-8.4 3.1-9 0-1.3 1.8-6.1 2.4-6.1.2 0 5.9 2 12.7 4.4m-112.1 98c73.4 10.6 73.4 10.7 74.3 11.6 1.3 1.2-8.7 4.6-20 6.9-26.5 5.4-53.5 2.9-78.9-7.2-9.2-3.7-23.9-11.9-28.7-15.9-3.2-2.7-3.2-2.7-.7-2.8 1.4 0 25.7 3.4 54 7.4"/></svg>